<?xml version="1.0" standalone="no"?>
<!DOCTYPE svg PUBLIC "-//W3C//DTD SVG 20010904//EN"
 "http://www.w3.org/TR/2001/REC-SVG-20010904/DTD/svg10.dtd">
<svg version="1.0" xmlns="http://www.w3.org/2000/svg"
 width="50.000000pt" height="50.000000pt" viewBox="0 0 50.000000 50.000000"
 preserveAspectRatio="xMidYMid meet">

<g transform="translate(0.000000,50.000000) scale(0.100000,-0.100000)"
fill="#FF0000" stroke="none">
<path d="M102 469 c3 -8 15 -44 27 -82 l23 -67 39 27 c21 16 39 31 39 34 0 4
-24 24 -52 46 -72 54 -83 59 -76 42z"/>
<path d="M332 434 c-34 -25 -62 -48 -62 -52 0 -4 18 -19 39 -34 l39 -28 26 77
c14 42 25 78 23 79 -1 1 -30 -18 -65 -42z"/>
<path d="M73 247 c-34 -23 -62 -45 -63 -49 0 -9 154 -11 162 -3 6 6 -24 95
-32 95 -3 0 -33 -19 -67 -43z"/>
<path d="M342 251 c-19 -61 -19 -61 68 -61 44 0 80 3 80 8 -1 7 -122 92 -132
92 -3 0 -10 -17 -16 -39z"/>
<path d="M200 172 c0 -8 29 -99 46 -142 5 -12 53 117 54 143 0 4 -22 7 -50 7
-27 0 -50 -4 -50 -8z"/>
</g>
</svg>
